<mxfile host="app.diagrams.net" modified="2021-12-14T07:32:53.487Z" agent="5.0 (Macintosh; Intel Mac OS X 10_15_7) AppleWebKit/537.36 (KHTML, like Gecko) Chrome/96.0.4664.93 Safari/537.36" etag="3BwF0xgR4O8RoTOoEQEL" version="15.9.4" type="github">
  <diagram id="l9er09KoPdNkiaL2bYZV" name="Page-1">
    <mxGraphModel dx="1757" dy="1868" grid="1" gridSize="10" guides="1" tooltips="1" connect="1" arrows="1" fold="1" page="1" pageScale="1" pageWidth="827" pageHeight="1169" math="0" shadow="0">
      <root>
        <mxCell id="0" />
        <mxCell id="1" parent="0" />
        <mxCell id="SbY_SyawXfCHRrJaQSdI-61" value="" style="rounded=0;whiteSpace=wrap;html=1;fontSize=16;" parent="1" vertex="1">
          <mxGeometry x="250" y="-350" width="330" height="150" as="geometry" />
        </mxCell>
        <mxCell id="SbY_SyawXfCHRrJaQSdI-82" value="页目录" style="rounded=1;whiteSpace=wrap;html=1;fontSize=16;fillColor=#ffcccc;strokeColor=#36393d;" parent="1" vertex="1">
          <mxGeometry x="280" y="-340" width="270" height="30" as="geometry" />
        </mxCell>
        <mxCell id="SbY_SyawXfCHRrJaQSdI-77" value="" style="rounded=1;whiteSpace=wrap;html=1;fontSize=16;fillColor=#f9f7ed;strokeColor=#36393d;" parent="1" vertex="1">
          <mxGeometry x="330" y="-305" width="220" height="95" as="geometry" />
        </mxCell>
        <mxCell id="SbY_SyawXfCHRrJaQSdI-76" value="" style="rounded=1;whiteSpace=wrap;html=1;fontSize=16;fillColor=#f9f7ed;strokeColor=#36393d;" parent="1" vertex="1">
          <mxGeometry x="275" y="-305" width="40" height="100" as="geometry" />
        </mxCell>
        <mxCell id="SbY_SyawXfCHRrJaQSdI-62" value="根叶子节点（页38）" style="rounded=0;whiteSpace=wrap;html=1;fontSize=16;fillColor=#ffcc99;strokeColor=#36393d;" parent="1" vertex="1">
          <mxGeometry x="250" y="-390" width="330" height="40" as="geometry" />
        </mxCell>
        <mxCell id="SbY_SyawXfCHRrJaQSdI-63" style="edgeStyle=orthogonalEdgeStyle;rounded=0;orthogonalLoop=1;jettySize=auto;html=1;entryX=0;entryY=0.5;entryDx=0;entryDy=0;fontSize=16;fillColor=#cdeb8b;strokeColor=#36393d;" parent="1" source="SbY_SyawXfCHRrJaQSdI-64" target="SbY_SyawXfCHRrJaQSdI-67" edge="1">
          <mxGeometry relative="1" as="geometry" />
        </mxCell>
        <mxCell id="SbY_SyawXfCHRrJaQSdI-64" value="1" style="rounded=0;whiteSpace=wrap;html=1;fontSize=16;fillColor=#cdeb8b;strokeColor=#36393d;" parent="1" vertex="1">
          <mxGeometry x="349" y="-295" width="40" height="40" as="geometry" />
        </mxCell>
        <mxCell id="SbY_SyawXfCHRrJaQSdI-186" style="edgeStyle=orthogonalEdgeStyle;rounded=0;orthogonalLoop=1;jettySize=auto;html=1;fontSize=16;" parent="1" source="SbY_SyawXfCHRrJaQSdI-65" target="SbY_SyawXfCHRrJaQSdI-179" edge="1">
          <mxGeometry relative="1" as="geometry" />
        </mxCell>
        <mxCell id="SbY_SyawXfCHRrJaQSdI-65" value="页30" style="rounded=0;whiteSpace=wrap;html=1;fontSize=16;fillColor=#cce5ff;strokeColor=#36393d;" parent="1" vertex="1">
          <mxGeometry x="349" y="-255" width="40" height="40" as="geometry" />
        </mxCell>
        <mxCell id="SbY_SyawXfCHRrJaQSdI-79" style="edgeStyle=orthogonalEdgeStyle;rounded=0;orthogonalLoop=1;jettySize=auto;html=1;entryX=0;entryY=0.25;entryDx=0;entryDy=0;fontSize=16;" parent="1" source="SbY_SyawXfCHRrJaQSdI-67" target="SbY_SyawXfCHRrJaQSdI-74" edge="1">
          <mxGeometry relative="1" as="geometry" />
        </mxCell>
        <mxCell id="SbY_SyawXfCHRrJaQSdI-67" value="7" style="rounded=0;whiteSpace=wrap;html=1;fontSize=16;fillColor=#cdeb8b;strokeColor=#36393d;" parent="1" vertex="1">
          <mxGeometry x="429" y="-295" width="40" height="40" as="geometry" />
        </mxCell>
        <mxCell id="SbY_SyawXfCHRrJaQSdI-187" style="edgeStyle=orthogonalEdgeStyle;rounded=0;orthogonalLoop=1;jettySize=auto;html=1;fontSize=16;" parent="1" source="SbY_SyawXfCHRrJaQSdI-68" target="SbY_SyawXfCHRrJaQSdI-164" edge="1">
          <mxGeometry relative="1" as="geometry" />
        </mxCell>
        <mxCell id="SbY_SyawXfCHRrJaQSdI-68" value="页36" style="rounded=0;whiteSpace=wrap;html=1;fontSize=16;fillColor=#cce5ff;strokeColor=#36393d;" parent="1" vertex="1">
          <mxGeometry x="429" y="-255" width="40" height="40" as="geometry" />
        </mxCell>
        <mxCell id="SbY_SyawXfCHRrJaQSdI-74" value="最大记录" style="rounded=0;whiteSpace=wrap;html=1;fontSize=16;fillColor=#ffff88;strokeColor=#36393d;" parent="1" vertex="1">
          <mxGeometry x="500" y="-295" width="30" height="80" as="geometry" />
        </mxCell>
        <mxCell id="SbY_SyawXfCHRrJaQSdI-78" style="edgeStyle=orthogonalEdgeStyle;rounded=0;orthogonalLoop=1;jettySize=auto;html=1;entryX=0;entryY=0.5;entryDx=0;entryDy=0;fontSize=16;exitX=1;exitY=0.25;exitDx=0;exitDy=0;" parent="1" source="SbY_SyawXfCHRrJaQSdI-75" target="SbY_SyawXfCHRrJaQSdI-64" edge="1">
          <mxGeometry relative="1" as="geometry" />
        </mxCell>
        <mxCell id="SbY_SyawXfCHRrJaQSdI-75" value="最小记录" style="rounded=0;whiteSpace=wrap;html=1;fontSize=16;fillColor=#ffff88;strokeColor=#36393d;" parent="1" vertex="1">
          <mxGeometry x="280" y="-295" width="30" height="80" as="geometry" />
        </mxCell>
        <mxCell id="jRwvZjU7lyasb2uTUV1m-10" style="edgeStyle=orthogonalEdgeStyle;rounded=0;orthogonalLoop=1;jettySize=auto;html=1;entryX=1.005;entryY=0.633;entryDx=0;entryDy=0;entryPerimeter=0;fontSize=12;exitX=-0.004;exitY=0.633;exitDx=0;exitDy=0;exitPerimeter=0;" edge="1" parent="1" source="SbY_SyawXfCHRrJaQSdI-151" target="SbY_SyawXfCHRrJaQSdI-166">
          <mxGeometry relative="1" as="geometry" />
        </mxCell>
        <mxCell id="SbY_SyawXfCHRrJaQSdI-151" value="" style="rounded=0;whiteSpace=wrap;html=1;fontSize=16;" parent="1" vertex="1">
          <mxGeometry x="469" y="-95" width="260" height="150" as="geometry" />
        </mxCell>
        <mxCell id="SbY_SyawXfCHRrJaQSdI-152" value="页目录" style="rounded=1;whiteSpace=wrap;html=1;fontSize=16;fillColor=#ffcccc;strokeColor=#36393d;" parent="1" vertex="1">
          <mxGeometry x="499" y="-85" width="210" height="30" as="geometry" />
        </mxCell>
        <mxCell id="SbY_SyawXfCHRrJaQSdI-153" value="" style="rounded=1;whiteSpace=wrap;html=1;fontSize=16;fillColor=#f9f7ed;strokeColor=#36393d;" parent="1" vertex="1">
          <mxGeometry x="549" y="-50" width="160" height="95" as="geometry" />
        </mxCell>
        <mxCell id="SbY_SyawXfCHRrJaQSdI-154" value="" style="rounded=1;whiteSpace=wrap;html=1;fontSize=16;fillColor=#f9f7ed;strokeColor=#36393d;" parent="1" vertex="1">
          <mxGeometry x="494" y="-50" width="40" height="100" as="geometry" />
        </mxCell>
        <mxCell id="SbY_SyawXfCHRrJaQSdI-155" value="7" style="rounded=0;whiteSpace=wrap;html=1;fontSize=16;fillColor=#cdeb8b;strokeColor=#36393d;" parent="1" vertex="1">
          <mxGeometry x="568" y="-40" width="40" height="40" as="geometry" />
        </mxCell>
        <mxCell id="SbY_SyawXfCHRrJaQSdI-191" style="edgeStyle=orthogonalEdgeStyle;rounded=0;orthogonalLoop=1;jettySize=auto;html=1;entryX=0.5;entryY=0;entryDx=0;entryDy=0;fontSize=16;" parent="1" source="SbY_SyawXfCHRrJaQSdI-156" target="SbY_SyawXfCHRrJaQSdI-149" edge="1">
          <mxGeometry relative="1" as="geometry">
            <Array as="points">
              <mxPoint x="588" y="90" />
              <mxPoint x="895" y="90" />
            </Array>
          </mxGeometry>
        </mxCell>
        <mxCell id="SbY_SyawXfCHRrJaQSdI-156" value="页8" style="rounded=0;whiteSpace=wrap;html=1;fontSize=16;fillColor=#cce5ff;strokeColor=#36393d;" parent="1" vertex="1">
          <mxGeometry x="568" width="40" height="40" as="geometry" />
        </mxCell>
        <mxCell id="SbY_SyawXfCHRrJaQSdI-158" style="edgeStyle=orthogonalEdgeStyle;rounded=0;orthogonalLoop=1;jettySize=auto;html=1;entryX=0;entryY=0.5;entryDx=0;entryDy=0;fontSize=16;fillColor=#cdeb8b;strokeColor=#36393d;" parent="1" source="SbY_SyawXfCHRrJaQSdI-155" edge="1">
          <mxGeometry relative="1" as="geometry">
            <mxPoint x="648" y="-20" as="targetPoint" />
          </mxGeometry>
        </mxCell>
        <mxCell id="SbY_SyawXfCHRrJaQSdI-160" value="最大记录" style="rounded=0;whiteSpace=wrap;html=1;fontSize=16;fillColor=#ffff88;strokeColor=#36393d;" parent="1" vertex="1">
          <mxGeometry x="649" y="-45" width="30" height="80" as="geometry" />
        </mxCell>
        <mxCell id="SbY_SyawXfCHRrJaQSdI-162" style="edgeStyle=orthogonalEdgeStyle;rounded=0;orthogonalLoop=1;jettySize=auto;html=1;entryX=0;entryY=0.5;entryDx=0;entryDy=0;fontSize=16;exitX=1;exitY=0.25;exitDx=0;exitDy=0;" parent="1" source="SbY_SyawXfCHRrJaQSdI-163" target="SbY_SyawXfCHRrJaQSdI-155" edge="1">
          <mxGeometry relative="1" as="geometry" />
        </mxCell>
        <mxCell id="SbY_SyawXfCHRrJaQSdI-163" value="最小记录" style="rounded=0;whiteSpace=wrap;html=1;fontSize=16;fillColor=#ffff88;strokeColor=#36393d;" parent="1" vertex="1">
          <mxGeometry x="499" y="-40" width="30" height="80" as="geometry" />
        </mxCell>
        <mxCell id="SbY_SyawXfCHRrJaQSdI-164" value="非叶子节点（页36）" style="rounded=0;whiteSpace=wrap;html=1;fontSize=16;fillColor=#ffcc99;strokeColor=#36393d;" parent="1" vertex="1">
          <mxGeometry x="469" y="-135" width="260" height="40" as="geometry" />
        </mxCell>
        <mxCell id="jRwvZjU7lyasb2uTUV1m-9" style="edgeStyle=orthogonalEdgeStyle;rounded=0;orthogonalLoop=1;jettySize=auto;html=1;entryX=0;entryY=0.25;entryDx=0;entryDy=0;fontSize=12;exitX=1;exitY=0.25;exitDx=0;exitDy=0;" edge="1" parent="1" source="SbY_SyawXfCHRrJaQSdI-166" target="SbY_SyawXfCHRrJaQSdI-151">
          <mxGeometry relative="1" as="geometry" />
        </mxCell>
        <mxCell id="SbY_SyawXfCHRrJaQSdI-166" value="" style="rounded=0;whiteSpace=wrap;html=1;fontSize=16;" parent="1" vertex="1">
          <mxGeometry x="-10" y="-95" width="380" height="150" as="geometry" />
        </mxCell>
        <mxCell id="SbY_SyawXfCHRrJaQSdI-167" value="页目录" style="rounded=1;whiteSpace=wrap;html=1;fontSize=16;fillColor=#ffcccc;strokeColor=#36393d;" parent="1" vertex="1">
          <mxGeometry x="15" y="-85" width="335" height="30" as="geometry" />
        </mxCell>
        <mxCell id="SbY_SyawXfCHRrJaQSdI-168" value="" style="rounded=1;whiteSpace=wrap;html=1;fontSize=16;fillColor=#f9f7ed;strokeColor=#36393d;" parent="1" vertex="1">
          <mxGeometry x="70" y="-50" width="280" height="95" as="geometry" />
        </mxCell>
        <mxCell id="SbY_SyawXfCHRrJaQSdI-169" value="" style="rounded=1;whiteSpace=wrap;html=1;fontSize=16;fillColor=#f9f7ed;strokeColor=#36393d;" parent="1" vertex="1">
          <mxGeometry x="15" y="-50" width="40" height="100" as="geometry" />
        </mxCell>
        <mxCell id="SbY_SyawXfCHRrJaQSdI-170" value="1" style="rounded=0;whiteSpace=wrap;html=1;fontSize=16;fillColor=#cdeb8b;strokeColor=#36393d;" parent="1" vertex="1">
          <mxGeometry x="89" y="-40" width="40" height="40" as="geometry" />
        </mxCell>
        <mxCell id="SbY_SyawXfCHRrJaQSdI-188" style="edgeStyle=orthogonalEdgeStyle;rounded=0;orthogonalLoop=1;jettySize=auto;html=1;fontSize=16;" parent="1" source="SbY_SyawXfCHRrJaQSdI-171" target="SbY_SyawXfCHRrJaQSdI-96" edge="1">
          <mxGeometry relative="1" as="geometry">
            <Array as="points">
              <mxPoint x="109" y="90" />
              <mxPoint x="-305" y="90" />
            </Array>
          </mxGeometry>
        </mxCell>
        <mxCell id="SbY_SyawXfCHRrJaQSdI-171" value="页10" style="rounded=0;whiteSpace=wrap;html=1;fontSize=16;fillColor=#cce5ff;strokeColor=#36393d;" parent="1" vertex="1">
          <mxGeometry x="89" width="40" height="40" as="geometry" />
        </mxCell>
        <mxCell id="SbY_SyawXfCHRrJaQSdI-172" value="3" style="rounded=0;whiteSpace=wrap;html=1;fontSize=16;fillColor=#cdeb8b;strokeColor=#36393d;" parent="1" vertex="1">
          <mxGeometry x="169" y="-40" width="40" height="40" as="geometry" />
        </mxCell>
        <mxCell id="SbY_SyawXfCHRrJaQSdI-173" style="edgeStyle=orthogonalEdgeStyle;rounded=0;orthogonalLoop=1;jettySize=auto;html=1;entryX=0;entryY=0.5;entryDx=0;entryDy=0;fontSize=16;fillColor=#cdeb8b;strokeColor=#36393d;" parent="1" source="SbY_SyawXfCHRrJaQSdI-170" target="SbY_SyawXfCHRrJaQSdI-172" edge="1">
          <mxGeometry relative="1" as="geometry" />
        </mxCell>
        <mxCell id="SbY_SyawXfCHRrJaQSdI-189" style="edgeStyle=orthogonalEdgeStyle;rounded=0;orthogonalLoop=1;jettySize=auto;html=1;fontSize=16;" parent="1" source="SbY_SyawXfCHRrJaQSdI-174" target="SbY_SyawXfCHRrJaQSdI-112" edge="1">
          <mxGeometry relative="1" as="geometry">
            <Array as="points">
              <mxPoint x="189" y="100" />
              <mxPoint x="95" y="100" />
            </Array>
          </mxGeometry>
        </mxCell>
        <mxCell id="SbY_SyawXfCHRrJaQSdI-190" style="edgeStyle=orthogonalEdgeStyle;rounded=0;orthogonalLoop=1;jettySize=auto;html=1;entryX=0.5;entryY=0;entryDx=0;entryDy=0;fontSize=16;exitX=0.5;exitY=1;exitDx=0;exitDy=0;" parent="1" source="SbY_SyawXfCHRrJaQSdI-184" target="SbY_SyawXfCHRrJaQSdI-134" edge="1">
          <mxGeometry relative="1" as="geometry">
            <Array as="points">
              <mxPoint x="260" y="100" />
              <mxPoint x="495" y="100" />
            </Array>
          </mxGeometry>
        </mxCell>
        <mxCell id="SbY_SyawXfCHRrJaQSdI-174" value="页22" style="rounded=0;whiteSpace=wrap;html=1;fontSize=16;fillColor=#cce5ff;strokeColor=#36393d;" parent="1" vertex="1">
          <mxGeometry x="169" width="40" height="40" as="geometry" />
        </mxCell>
        <mxCell id="SbY_SyawXfCHRrJaQSdI-175" value="最大记录" style="rounded=0;whiteSpace=wrap;html=1;fontSize=16;fillColor=#ffff88;strokeColor=#36393d;" parent="1" vertex="1">
          <mxGeometry x="310" y="-40" width="30" height="80" as="geometry" />
        </mxCell>
        <mxCell id="SbY_SyawXfCHRrJaQSdI-176" style="edgeStyle=orthogonalEdgeStyle;rounded=0;orthogonalLoop=1;jettySize=auto;html=1;entryX=0;entryY=0.5;entryDx=0;entryDy=0;fontSize=16;" parent="1" source="SbY_SyawXfCHRrJaQSdI-172" target="SbY_SyawXfCHRrJaQSdI-183" edge="1">
          <mxGeometry relative="1" as="geometry" />
        </mxCell>
        <mxCell id="SbY_SyawXfCHRrJaQSdI-177" style="edgeStyle=orthogonalEdgeStyle;rounded=0;orthogonalLoop=1;jettySize=auto;html=1;entryX=0;entryY=0.5;entryDx=0;entryDy=0;fontSize=16;exitX=1;exitY=0.25;exitDx=0;exitDy=0;" parent="1" source="SbY_SyawXfCHRrJaQSdI-178" target="SbY_SyawXfCHRrJaQSdI-170" edge="1">
          <mxGeometry relative="1" as="geometry" />
        </mxCell>
        <mxCell id="SbY_SyawXfCHRrJaQSdI-178" value="最小记录" style="rounded=0;whiteSpace=wrap;html=1;fontSize=16;fillColor=#ffff88;strokeColor=#36393d;" parent="1" vertex="1">
          <mxGeometry x="20" y="-40" width="30" height="80" as="geometry" />
        </mxCell>
        <mxCell id="SbY_SyawXfCHRrJaQSdI-179" value="非叶子节点（页30）" style="rounded=0;whiteSpace=wrap;html=1;fontSize=16;fillColor=#ffcc99;strokeColor=#36393d;" parent="1" vertex="1">
          <mxGeometry x="-10" y="-135" width="380" height="40" as="geometry" />
        </mxCell>
        <mxCell id="SbY_SyawXfCHRrJaQSdI-185" style="edgeStyle=orthogonalEdgeStyle;rounded=0;orthogonalLoop=1;jettySize=auto;html=1;fontSize=16;entryX=0;entryY=0.25;entryDx=0;entryDy=0;" parent="1" source="SbY_SyawXfCHRrJaQSdI-183" target="SbY_SyawXfCHRrJaQSdI-175" edge="1">
          <mxGeometry relative="1" as="geometry" />
        </mxCell>
        <mxCell id="SbY_SyawXfCHRrJaQSdI-183" value="5" style="rounded=0;whiteSpace=wrap;html=1;fontSize=16;fillColor=#cdeb8b;strokeColor=#36393d;" parent="1" vertex="1">
          <mxGeometry x="240" y="-40" width="40" height="40" as="geometry" />
        </mxCell>
        <mxCell id="SbY_SyawXfCHRrJaQSdI-184" value="页16" style="rounded=0;whiteSpace=wrap;html=1;fontSize=16;fillColor=#cce5ff;strokeColor=#36393d;" parent="1" vertex="1">
          <mxGeometry x="240" width="40" height="40" as="geometry" />
        </mxCell>
        <mxCell id="SbY_SyawXfCHRrJaQSdI-192" value="" style="group" parent="1" vertex="1" connectable="0">
          <mxGeometry x="-470" y="140" width="1530" height="190" as="geometry" />
        </mxCell>
        <mxCell id="SbY_SyawXfCHRrJaQSdI-97" value="" style="group" parent="SbY_SyawXfCHRrJaQSdI-192" vertex="1" connectable="0">
          <mxGeometry width="330" height="190" as="geometry" />
        </mxCell>
        <mxCell id="SbY_SyawXfCHRrJaQSdI-83" value="" style="rounded=0;whiteSpace=wrap;html=1;fontSize=16;" parent="SbY_SyawXfCHRrJaQSdI-97" vertex="1">
          <mxGeometry y="40" width="330" height="150" as="geometry" />
        </mxCell>
        <mxCell id="SbY_SyawXfCHRrJaQSdI-84" value="页目录" style="rounded=1;whiteSpace=wrap;html=1;fontSize=16;fillColor=#ffcccc;strokeColor=#36393d;" parent="SbY_SyawXfCHRrJaQSdI-97" vertex="1">
          <mxGeometry x="30" y="50" width="270" height="30" as="geometry" />
        </mxCell>
        <mxCell id="SbY_SyawXfCHRrJaQSdI-85" value="" style="rounded=1;whiteSpace=wrap;html=1;fontSize=16;fillColor=#f9f7ed;strokeColor=#36393d;" parent="SbY_SyawXfCHRrJaQSdI-97" vertex="1">
          <mxGeometry x="80" y="85" width="220" height="95" as="geometry" />
        </mxCell>
        <mxCell id="SbY_SyawXfCHRrJaQSdI-86" value="" style="rounded=1;whiteSpace=wrap;html=1;fontSize=16;fillColor=#f9f7ed;strokeColor=#36393d;" parent="SbY_SyawXfCHRrJaQSdI-97" vertex="1">
          <mxGeometry x="25" y="85" width="40" height="100" as="geometry" />
        </mxCell>
        <mxCell id="SbY_SyawXfCHRrJaQSdI-88" value="1" style="rounded=0;whiteSpace=wrap;html=1;fontSize=16;fillColor=#cdeb8b;strokeColor=#36393d;" parent="SbY_SyawXfCHRrJaQSdI-97" vertex="1">
          <mxGeometry x="99" y="95" width="40" height="40" as="geometry" />
        </mxCell>
        <mxCell id="SbY_SyawXfCHRrJaQSdI-89" value="data" style="rounded=0;whiteSpace=wrap;html=1;fontSize=16;fillColor=#cce5ff;strokeColor=#36393d;" parent="SbY_SyawXfCHRrJaQSdI-97" vertex="1">
          <mxGeometry x="99" y="135" width="40" height="40" as="geometry" />
        </mxCell>
        <mxCell id="SbY_SyawXfCHRrJaQSdI-91" value="2" style="rounded=0;whiteSpace=wrap;html=1;fontSize=16;fillColor=#cdeb8b;strokeColor=#36393d;" parent="SbY_SyawXfCHRrJaQSdI-97" vertex="1">
          <mxGeometry x="179" y="95" width="40" height="40" as="geometry" />
        </mxCell>
        <mxCell id="SbY_SyawXfCHRrJaQSdI-87" style="edgeStyle=orthogonalEdgeStyle;rounded=0;orthogonalLoop=1;jettySize=auto;html=1;entryX=0;entryY=0.5;entryDx=0;entryDy=0;fontSize=16;fillColor=#cdeb8b;strokeColor=#36393d;" parent="SbY_SyawXfCHRrJaQSdI-97" source="SbY_SyawXfCHRrJaQSdI-88" target="SbY_SyawXfCHRrJaQSdI-91" edge="1">
          <mxGeometry relative="1" as="geometry" />
        </mxCell>
        <mxCell id="SbY_SyawXfCHRrJaQSdI-92" value="data" style="rounded=0;whiteSpace=wrap;html=1;fontSize=16;fillColor=#cce5ff;strokeColor=#36393d;" parent="SbY_SyawXfCHRrJaQSdI-97" vertex="1">
          <mxGeometry x="179" y="135" width="40" height="40" as="geometry" />
        </mxCell>
        <mxCell id="SbY_SyawXfCHRrJaQSdI-93" value="最大记录" style="rounded=0;whiteSpace=wrap;html=1;fontSize=16;fillColor=#ffff88;strokeColor=#36393d;" parent="SbY_SyawXfCHRrJaQSdI-97" vertex="1">
          <mxGeometry x="250" y="95" width="30" height="80" as="geometry" />
        </mxCell>
        <mxCell id="SbY_SyawXfCHRrJaQSdI-90" style="edgeStyle=orthogonalEdgeStyle;rounded=0;orthogonalLoop=1;jettySize=auto;html=1;entryX=0;entryY=0.25;entryDx=0;entryDy=0;fontSize=16;" parent="SbY_SyawXfCHRrJaQSdI-97" source="SbY_SyawXfCHRrJaQSdI-91" target="SbY_SyawXfCHRrJaQSdI-93" edge="1">
          <mxGeometry relative="1" as="geometry" />
        </mxCell>
        <mxCell id="SbY_SyawXfCHRrJaQSdI-94" style="edgeStyle=orthogonalEdgeStyle;rounded=0;orthogonalLoop=1;jettySize=auto;html=1;entryX=0;entryY=0.5;entryDx=0;entryDy=0;fontSize=16;exitX=1;exitY=0.25;exitDx=0;exitDy=0;" parent="SbY_SyawXfCHRrJaQSdI-97" source="SbY_SyawXfCHRrJaQSdI-95" target="SbY_SyawXfCHRrJaQSdI-88" edge="1">
          <mxGeometry relative="1" as="geometry" />
        </mxCell>
        <mxCell id="SbY_SyawXfCHRrJaQSdI-95" value="最小记录" style="rounded=0;whiteSpace=wrap;html=1;fontSize=16;fillColor=#ffff88;strokeColor=#36393d;" parent="SbY_SyawXfCHRrJaQSdI-97" vertex="1">
          <mxGeometry x="30" y="95" width="30" height="80" as="geometry" />
        </mxCell>
        <mxCell id="SbY_SyawXfCHRrJaQSdI-96" value="叶子节点（页10）" style="rounded=0;whiteSpace=wrap;html=1;fontSize=16;fillColor=#ffcc99;strokeColor=#36393d;" parent="SbY_SyawXfCHRrJaQSdI-97" vertex="1">
          <mxGeometry width="330" height="40" as="geometry" />
        </mxCell>
        <mxCell id="SbY_SyawXfCHRrJaQSdI-98" value="" style="group" parent="SbY_SyawXfCHRrJaQSdI-192" vertex="1" connectable="0">
          <mxGeometry x="400" width="330" height="190" as="geometry" />
        </mxCell>
        <mxCell id="SbY_SyawXfCHRrJaQSdI-99" value="" style="rounded=0;whiteSpace=wrap;html=1;fontSize=16;" parent="SbY_SyawXfCHRrJaQSdI-98" vertex="1">
          <mxGeometry y="40" width="330" height="150" as="geometry" />
        </mxCell>
        <mxCell id="SbY_SyawXfCHRrJaQSdI-100" value="页目录" style="rounded=1;whiteSpace=wrap;html=1;fontSize=16;fillColor=#ffcccc;strokeColor=#36393d;" parent="SbY_SyawXfCHRrJaQSdI-98" vertex="1">
          <mxGeometry x="30" y="50" width="270" height="30" as="geometry" />
        </mxCell>
        <mxCell id="SbY_SyawXfCHRrJaQSdI-101" value="" style="rounded=1;whiteSpace=wrap;html=1;fontSize=16;fillColor=#f9f7ed;strokeColor=#36393d;" parent="SbY_SyawXfCHRrJaQSdI-98" vertex="1">
          <mxGeometry x="80" y="85" width="220" height="95" as="geometry" />
        </mxCell>
        <mxCell id="SbY_SyawXfCHRrJaQSdI-102" value="" style="rounded=1;whiteSpace=wrap;html=1;fontSize=16;fillColor=#f9f7ed;strokeColor=#36393d;" parent="SbY_SyawXfCHRrJaQSdI-98" vertex="1">
          <mxGeometry x="25" y="85" width="40" height="100" as="geometry" />
        </mxCell>
        <mxCell id="SbY_SyawXfCHRrJaQSdI-103" value="3" style="rounded=0;whiteSpace=wrap;html=1;fontSize=16;fillColor=#cdeb8b;strokeColor=#36393d;" parent="SbY_SyawXfCHRrJaQSdI-98" vertex="1">
          <mxGeometry x="99" y="95" width="40" height="40" as="geometry" />
        </mxCell>
        <mxCell id="SbY_SyawXfCHRrJaQSdI-104" value="data" style="rounded=0;whiteSpace=wrap;html=1;fontSize=16;fillColor=#cce5ff;strokeColor=#36393d;" parent="SbY_SyawXfCHRrJaQSdI-98" vertex="1">
          <mxGeometry x="99" y="135" width="40" height="40" as="geometry" />
        </mxCell>
        <mxCell id="SbY_SyawXfCHRrJaQSdI-105" value="4" style="rounded=0;whiteSpace=wrap;html=1;fontSize=16;fillColor=#cdeb8b;strokeColor=#36393d;" parent="SbY_SyawXfCHRrJaQSdI-98" vertex="1">
          <mxGeometry x="179" y="95" width="40" height="40" as="geometry" />
        </mxCell>
        <mxCell id="SbY_SyawXfCHRrJaQSdI-106" style="edgeStyle=orthogonalEdgeStyle;rounded=0;orthogonalLoop=1;jettySize=auto;html=1;entryX=0;entryY=0.5;entryDx=0;entryDy=0;fontSize=16;fillColor=#cdeb8b;strokeColor=#36393d;" parent="SbY_SyawXfCHRrJaQSdI-98" source="SbY_SyawXfCHRrJaQSdI-103" target="SbY_SyawXfCHRrJaQSdI-105" edge="1">
          <mxGeometry relative="1" as="geometry" />
        </mxCell>
        <mxCell id="SbY_SyawXfCHRrJaQSdI-107" value="data" style="rounded=0;whiteSpace=wrap;html=1;fontSize=16;fillColor=#cce5ff;strokeColor=#36393d;" parent="SbY_SyawXfCHRrJaQSdI-98" vertex="1">
          <mxGeometry x="179" y="135" width="40" height="40" as="geometry" />
        </mxCell>
        <mxCell id="SbY_SyawXfCHRrJaQSdI-108" value="最大记录" style="rounded=0;whiteSpace=wrap;html=1;fontSize=16;fillColor=#ffff88;strokeColor=#36393d;" parent="SbY_SyawXfCHRrJaQSdI-98" vertex="1">
          <mxGeometry x="250" y="95" width="30" height="80" as="geometry" />
        </mxCell>
        <mxCell id="SbY_SyawXfCHRrJaQSdI-109" style="edgeStyle=orthogonalEdgeStyle;rounded=0;orthogonalLoop=1;jettySize=auto;html=1;entryX=0;entryY=0.25;entryDx=0;entryDy=0;fontSize=16;" parent="SbY_SyawXfCHRrJaQSdI-98" source="SbY_SyawXfCHRrJaQSdI-105" target="SbY_SyawXfCHRrJaQSdI-108" edge="1">
          <mxGeometry relative="1" as="geometry" />
        </mxCell>
        <mxCell id="SbY_SyawXfCHRrJaQSdI-110" style="edgeStyle=orthogonalEdgeStyle;rounded=0;orthogonalLoop=1;jettySize=auto;html=1;entryX=0;entryY=0.5;entryDx=0;entryDy=0;fontSize=16;exitX=1;exitY=0.25;exitDx=0;exitDy=0;" parent="SbY_SyawXfCHRrJaQSdI-98" source="SbY_SyawXfCHRrJaQSdI-111" target="SbY_SyawXfCHRrJaQSdI-103" edge="1">
          <mxGeometry relative="1" as="geometry" />
        </mxCell>
        <mxCell id="SbY_SyawXfCHRrJaQSdI-111" value="最小记录" style="rounded=0;whiteSpace=wrap;html=1;fontSize=16;fillColor=#ffff88;strokeColor=#36393d;" parent="SbY_SyawXfCHRrJaQSdI-98" vertex="1">
          <mxGeometry x="30" y="95" width="30" height="80" as="geometry" />
        </mxCell>
        <mxCell id="SbY_SyawXfCHRrJaQSdI-112" value="叶子节点（页22）" style="rounded=0;whiteSpace=wrap;html=1;fontSize=16;fillColor=#ffcc99;strokeColor=#36393d;" parent="SbY_SyawXfCHRrJaQSdI-98" vertex="1">
          <mxGeometry width="330" height="40" as="geometry" />
        </mxCell>
        <mxCell id="SbY_SyawXfCHRrJaQSdI-120" value="" style="group" parent="SbY_SyawXfCHRrJaQSdI-192" vertex="1" connectable="0">
          <mxGeometry x="800" width="330" height="190" as="geometry" />
        </mxCell>
        <mxCell id="SbY_SyawXfCHRrJaQSdI-121" value="" style="rounded=0;whiteSpace=wrap;html=1;fontSize=16;" parent="SbY_SyawXfCHRrJaQSdI-120" vertex="1">
          <mxGeometry y="40" width="330" height="150" as="geometry" />
        </mxCell>
        <mxCell id="SbY_SyawXfCHRrJaQSdI-122" value="页目录" style="rounded=1;whiteSpace=wrap;html=1;fontSize=16;fillColor=#ffcccc;strokeColor=#36393d;" parent="SbY_SyawXfCHRrJaQSdI-120" vertex="1">
          <mxGeometry x="30" y="50" width="270" height="30" as="geometry" />
        </mxCell>
        <mxCell id="SbY_SyawXfCHRrJaQSdI-123" value="" style="rounded=1;whiteSpace=wrap;html=1;fontSize=16;fillColor=#f9f7ed;strokeColor=#36393d;" parent="SbY_SyawXfCHRrJaQSdI-120" vertex="1">
          <mxGeometry x="80" y="85" width="220" height="95" as="geometry" />
        </mxCell>
        <mxCell id="SbY_SyawXfCHRrJaQSdI-124" value="" style="rounded=1;whiteSpace=wrap;html=1;fontSize=16;fillColor=#f9f7ed;strokeColor=#36393d;" parent="SbY_SyawXfCHRrJaQSdI-120" vertex="1">
          <mxGeometry x="25" y="85" width="40" height="100" as="geometry" />
        </mxCell>
        <mxCell id="SbY_SyawXfCHRrJaQSdI-125" value="5" style="rounded=0;whiteSpace=wrap;html=1;fontSize=16;fillColor=#cdeb8b;strokeColor=#36393d;" parent="SbY_SyawXfCHRrJaQSdI-120" vertex="1">
          <mxGeometry x="99" y="95" width="40" height="40" as="geometry" />
        </mxCell>
        <mxCell id="SbY_SyawXfCHRrJaQSdI-126" value="data" style="rounded=0;whiteSpace=wrap;html=1;fontSize=16;fillColor=#cce5ff;strokeColor=#36393d;" parent="SbY_SyawXfCHRrJaQSdI-120" vertex="1">
          <mxGeometry x="99" y="135" width="40" height="40" as="geometry" />
        </mxCell>
        <mxCell id="SbY_SyawXfCHRrJaQSdI-127" value="6" style="rounded=0;whiteSpace=wrap;html=1;fontSize=16;fillColor=#cdeb8b;strokeColor=#36393d;" parent="SbY_SyawXfCHRrJaQSdI-120" vertex="1">
          <mxGeometry x="179" y="95" width="40" height="40" as="geometry" />
        </mxCell>
        <mxCell id="SbY_SyawXfCHRrJaQSdI-128" style="edgeStyle=orthogonalEdgeStyle;rounded=0;orthogonalLoop=1;jettySize=auto;html=1;entryX=0;entryY=0.5;entryDx=0;entryDy=0;fontSize=16;fillColor=#cdeb8b;strokeColor=#36393d;" parent="SbY_SyawXfCHRrJaQSdI-120" source="SbY_SyawXfCHRrJaQSdI-125" target="SbY_SyawXfCHRrJaQSdI-127" edge="1">
          <mxGeometry relative="1" as="geometry" />
        </mxCell>
        <mxCell id="SbY_SyawXfCHRrJaQSdI-129" value="data" style="rounded=0;whiteSpace=wrap;html=1;fontSize=16;fillColor=#cce5ff;strokeColor=#36393d;" parent="SbY_SyawXfCHRrJaQSdI-120" vertex="1">
          <mxGeometry x="179" y="135" width="40" height="40" as="geometry" />
        </mxCell>
        <mxCell id="SbY_SyawXfCHRrJaQSdI-130" value="最大记录" style="rounded=0;whiteSpace=wrap;html=1;fontSize=16;fillColor=#ffff88;strokeColor=#36393d;" parent="SbY_SyawXfCHRrJaQSdI-120" vertex="1">
          <mxGeometry x="250" y="95" width="30" height="80" as="geometry" />
        </mxCell>
        <mxCell id="SbY_SyawXfCHRrJaQSdI-131" style="edgeStyle=orthogonalEdgeStyle;rounded=0;orthogonalLoop=1;jettySize=auto;html=1;entryX=0;entryY=0.25;entryDx=0;entryDy=0;fontSize=16;" parent="SbY_SyawXfCHRrJaQSdI-120" source="SbY_SyawXfCHRrJaQSdI-127" target="SbY_SyawXfCHRrJaQSdI-130" edge="1">
          <mxGeometry relative="1" as="geometry" />
        </mxCell>
        <mxCell id="SbY_SyawXfCHRrJaQSdI-132" style="edgeStyle=orthogonalEdgeStyle;rounded=0;orthogonalLoop=1;jettySize=auto;html=1;entryX=0;entryY=0.5;entryDx=0;entryDy=0;fontSize=16;exitX=1;exitY=0.25;exitDx=0;exitDy=0;" parent="SbY_SyawXfCHRrJaQSdI-120" source="SbY_SyawXfCHRrJaQSdI-133" target="SbY_SyawXfCHRrJaQSdI-125" edge="1">
          <mxGeometry relative="1" as="geometry" />
        </mxCell>
        <mxCell id="SbY_SyawXfCHRrJaQSdI-133" value="最小记录" style="rounded=0;whiteSpace=wrap;html=1;fontSize=16;fillColor=#ffff88;strokeColor=#36393d;" parent="SbY_SyawXfCHRrJaQSdI-120" vertex="1">
          <mxGeometry x="30" y="95" width="30" height="80" as="geometry" />
        </mxCell>
        <mxCell id="SbY_SyawXfCHRrJaQSdI-134" value="叶子节点（页16）" style="rounded=0;whiteSpace=wrap;html=1;fontSize=16;fillColor=#ffcc99;strokeColor=#36393d;" parent="SbY_SyawXfCHRrJaQSdI-120" vertex="1">
          <mxGeometry width="330" height="40" as="geometry" />
        </mxCell>
        <mxCell id="SbY_SyawXfCHRrJaQSdI-135" value="" style="group" parent="SbY_SyawXfCHRrJaQSdI-192" vertex="1" connectable="0">
          <mxGeometry x="1200" width="330" height="190" as="geometry" />
        </mxCell>
        <mxCell id="SbY_SyawXfCHRrJaQSdI-136" value="" style="rounded=0;whiteSpace=wrap;html=1;fontSize=16;" parent="SbY_SyawXfCHRrJaQSdI-135" vertex="1">
          <mxGeometry y="40" width="330" height="150" as="geometry" />
        </mxCell>
        <mxCell id="SbY_SyawXfCHRrJaQSdI-137" value="页目录" style="rounded=1;whiteSpace=wrap;html=1;fontSize=16;fillColor=#ffcccc;strokeColor=#36393d;" parent="SbY_SyawXfCHRrJaQSdI-135" vertex="1">
          <mxGeometry x="30" y="50" width="270" height="30" as="geometry" />
        </mxCell>
        <mxCell id="SbY_SyawXfCHRrJaQSdI-138" value="" style="rounded=1;whiteSpace=wrap;html=1;fontSize=16;fillColor=#f9f7ed;strokeColor=#36393d;" parent="SbY_SyawXfCHRrJaQSdI-135" vertex="1">
          <mxGeometry x="80" y="85" width="220" height="95" as="geometry" />
        </mxCell>
        <mxCell id="SbY_SyawXfCHRrJaQSdI-139" value="" style="rounded=1;whiteSpace=wrap;html=1;fontSize=16;fillColor=#f9f7ed;strokeColor=#36393d;" parent="SbY_SyawXfCHRrJaQSdI-135" vertex="1">
          <mxGeometry x="25" y="85" width="40" height="100" as="geometry" />
        </mxCell>
        <mxCell id="SbY_SyawXfCHRrJaQSdI-140" value="7" style="rounded=0;whiteSpace=wrap;html=1;fontSize=16;fillColor=#cdeb8b;strokeColor=#36393d;" parent="SbY_SyawXfCHRrJaQSdI-135" vertex="1">
          <mxGeometry x="99" y="95" width="40" height="40" as="geometry" />
        </mxCell>
        <mxCell id="SbY_SyawXfCHRrJaQSdI-141" value="data" style="rounded=0;whiteSpace=wrap;html=1;fontSize=16;fillColor=#cce5ff;strokeColor=#36393d;" parent="SbY_SyawXfCHRrJaQSdI-135" vertex="1">
          <mxGeometry x="99" y="135" width="40" height="40" as="geometry" />
        </mxCell>
        <mxCell id="SbY_SyawXfCHRrJaQSdI-142" value="8" style="rounded=0;whiteSpace=wrap;html=1;fontSize=16;fillColor=#cdeb8b;strokeColor=#36393d;" parent="SbY_SyawXfCHRrJaQSdI-135" vertex="1">
          <mxGeometry x="179" y="95" width="40" height="40" as="geometry" />
        </mxCell>
        <mxCell id="SbY_SyawXfCHRrJaQSdI-143" style="edgeStyle=orthogonalEdgeStyle;rounded=0;orthogonalLoop=1;jettySize=auto;html=1;entryX=0;entryY=0.5;entryDx=0;entryDy=0;fontSize=16;fillColor=#cdeb8b;strokeColor=#36393d;" parent="SbY_SyawXfCHRrJaQSdI-135" source="SbY_SyawXfCHRrJaQSdI-140" target="SbY_SyawXfCHRrJaQSdI-142" edge="1">
          <mxGeometry relative="1" as="geometry" />
        </mxCell>
        <mxCell id="SbY_SyawXfCHRrJaQSdI-144" value="data" style="rounded=0;whiteSpace=wrap;html=1;fontSize=16;fillColor=#cce5ff;strokeColor=#36393d;" parent="SbY_SyawXfCHRrJaQSdI-135" vertex="1">
          <mxGeometry x="179" y="135" width="40" height="40" as="geometry" />
        </mxCell>
        <mxCell id="SbY_SyawXfCHRrJaQSdI-145" value="最大记录" style="rounded=0;whiteSpace=wrap;html=1;fontSize=16;fillColor=#ffff88;strokeColor=#36393d;" parent="SbY_SyawXfCHRrJaQSdI-135" vertex="1">
          <mxGeometry x="250" y="95" width="30" height="80" as="geometry" />
        </mxCell>
        <mxCell id="SbY_SyawXfCHRrJaQSdI-146" style="edgeStyle=orthogonalEdgeStyle;rounded=0;orthogonalLoop=1;jettySize=auto;html=1;entryX=0;entryY=0.25;entryDx=0;entryDy=0;fontSize=16;" parent="SbY_SyawXfCHRrJaQSdI-135" source="SbY_SyawXfCHRrJaQSdI-142" target="SbY_SyawXfCHRrJaQSdI-145" edge="1">
          <mxGeometry relative="1" as="geometry" />
        </mxCell>
        <mxCell id="SbY_SyawXfCHRrJaQSdI-147" style="edgeStyle=orthogonalEdgeStyle;rounded=0;orthogonalLoop=1;jettySize=auto;html=1;entryX=0;entryY=0.5;entryDx=0;entryDy=0;fontSize=16;exitX=1;exitY=0.25;exitDx=0;exitDy=0;" parent="SbY_SyawXfCHRrJaQSdI-135" source="SbY_SyawXfCHRrJaQSdI-148" target="SbY_SyawXfCHRrJaQSdI-140" edge="1">
          <mxGeometry relative="1" as="geometry" />
        </mxCell>
        <mxCell id="SbY_SyawXfCHRrJaQSdI-148" value="最小记录" style="rounded=0;whiteSpace=wrap;html=1;fontSize=16;fillColor=#ffff88;strokeColor=#36393d;" parent="SbY_SyawXfCHRrJaQSdI-135" vertex="1">
          <mxGeometry x="30" y="95" width="30" height="80" as="geometry" />
        </mxCell>
        <mxCell id="SbY_SyawXfCHRrJaQSdI-149" value="叶子节点（页8）" style="rounded=0;whiteSpace=wrap;html=1;fontSize=16;fillColor=#ffcc99;strokeColor=#36393d;" parent="SbY_SyawXfCHRrJaQSdI-135" vertex="1">
          <mxGeometry width="330" height="40" as="geometry" />
        </mxCell>
        <mxCell id="jRwvZjU7lyasb2uTUV1m-1" style="edgeStyle=orthogonalEdgeStyle;rounded=0;orthogonalLoop=1;jettySize=auto;html=1;exitX=1;exitY=0.25;exitDx=0;exitDy=0;entryX=0;entryY=0.25;entryDx=0;entryDy=0;fontSize=12;" edge="1" parent="SbY_SyawXfCHRrJaQSdI-192" source="SbY_SyawXfCHRrJaQSdI-83" target="SbY_SyawXfCHRrJaQSdI-99">
          <mxGeometry relative="1" as="geometry" />
        </mxCell>
        <mxCell id="jRwvZjU7lyasb2uTUV1m-2" style="edgeStyle=orthogonalEdgeStyle;rounded=0;orthogonalLoop=1;jettySize=auto;html=1;entryX=1;entryY=0.75;entryDx=0;entryDy=0;fontSize=12;exitX=0;exitY=0.75;exitDx=0;exitDy=0;" edge="1" parent="SbY_SyawXfCHRrJaQSdI-192" source="SbY_SyawXfCHRrJaQSdI-99" target="SbY_SyawXfCHRrJaQSdI-83">
          <mxGeometry relative="1" as="geometry" />
        </mxCell>
        <mxCell id="jRwvZjU7lyasb2uTUV1m-5" style="edgeStyle=orthogonalEdgeStyle;rounded=0;orthogonalLoop=1;jettySize=auto;html=1;entryX=0;entryY=0.25;entryDx=0;entryDy=0;fontSize=12;exitX=1;exitY=0.25;exitDx=0;exitDy=0;" edge="1" parent="SbY_SyawXfCHRrJaQSdI-192" source="SbY_SyawXfCHRrJaQSdI-99" target="SbY_SyawXfCHRrJaQSdI-121">
          <mxGeometry relative="1" as="geometry" />
        </mxCell>
        <mxCell id="jRwvZjU7lyasb2uTUV1m-6" style="edgeStyle=orthogonalEdgeStyle;rounded=0;orthogonalLoop=1;jettySize=auto;html=1;entryX=1;entryY=0.687;entryDx=0;entryDy=0;entryPerimeter=0;fontSize=12;exitX=0.003;exitY=0.687;exitDx=0;exitDy=0;exitPerimeter=0;" edge="1" parent="SbY_SyawXfCHRrJaQSdI-192" source="SbY_SyawXfCHRrJaQSdI-121" target="SbY_SyawXfCHRrJaQSdI-99">
          <mxGeometry relative="1" as="geometry" />
        </mxCell>
        <mxCell id="jRwvZjU7lyasb2uTUV1m-7" style="edgeStyle=orthogonalEdgeStyle;rounded=0;orthogonalLoop=1;jettySize=auto;html=1;entryX=0;entryY=0.25;entryDx=0;entryDy=0;fontSize=12;exitX=1;exitY=0.25;exitDx=0;exitDy=0;" edge="1" parent="SbY_SyawXfCHRrJaQSdI-192" source="SbY_SyawXfCHRrJaQSdI-121" target="SbY_SyawXfCHRrJaQSdI-136">
          <mxGeometry relative="1" as="geometry" />
        </mxCell>
        <mxCell id="jRwvZjU7lyasb2uTUV1m-8" style="edgeStyle=orthogonalEdgeStyle;rounded=0;orthogonalLoop=1;jettySize=auto;html=1;fontSize=12;" edge="1" parent="1">
          <mxGeometry relative="1" as="geometry">
            <mxPoint x="660" y="290" as="targetPoint" />
            <mxPoint x="730" y="290" as="sourcePoint" />
          </mxGeometry>
        </mxCell>
      </root>
    </mxGraphModel>
  </diagram>
</mxfile>
